<svg width="25" height="24" viewBox="0 0 25 24" fill="none" xmlns="http://www.w3.org/2000/svg">
<path d="M6.5 21C6.32821 20.9995 6.15946 20.9547 6.01 20.87C5.85553 20.7832 5.72691 20.6569 5.6373 20.504C5.54769 20.3511 5.50031 20.1772 5.5 20V5.33C5.48648 4.73032 5.70983 4.14946 6.12163 3.71332C6.53344 3.27718 7.10053 3.02089 7.7 3H17.3C17.8995 3.02089 18.4666 3.27718 18.8784 3.71332C19.2902 4.14946 19.5135 4.73032 19.5 5.33V20C19.4989 20.1745 19.4522 20.3457 19.3645 20.4966C19.2768 20.6475 19.1511 20.7727 19 20.86C18.848 20.9478 18.6755 20.994 18.5 20.994C18.3245 20.994 18.152 20.9478 18 20.86L12.33 17.65L7 20.85C6.84955 20.9434 6.67701 20.9951 6.5 21Z" fill="#AFD3CA"/>
</svg>
