<svg width="25" height="24" viewBox="0 0 25 24" fill="none" xmlns="http://www.w3.org/2000/svg">
<path d="M14.5 14H10.5V21H14.5V14Z" fill="white"/>
<path d="M20.92 10.18L13.21 2.29999C13.117 2.20627 13.0064 2.13187 12.8846 2.0811C12.7627 2.03033 12.632 2.0042 12.5 2.0042C12.368 2.0042 12.2373 2.03033 12.1154 2.0811C11.9936 2.13187 11.883 2.20627 11.79 2.29999L4.07999 10.19C3.89343 10.3781 3.74609 10.6013 3.64652 10.8468C3.54695 11.0923 3.49715 11.3551 3.49999 11.62V20C3.49922 20.5119 3.69477 21.0046 4.04637 21.3767C4.39797 21.7488 4.87885 21.9718 5.38999 22H8.49999V13C8.49999 12.7348 8.60535 12.4804 8.79289 12.2929C8.98042 12.1054 9.23478 12 9.49999 12H15.5C15.7652 12 16.0196 12.1054 16.2071 12.2929C16.3946 12.4804 16.5 12.7348 16.5 13V22H19.61C20.1211 21.9718 20.602 21.7488 20.9536 21.3767C21.3052 21.0046 21.5008 20.5119 21.5 20V11.62C21.5008 11.0829 21.2928 10.5666 20.92 10.18Z" fill="white"/>
</svg>
