<svg width="25" height="24" viewBox="0 0 25 24" fill="none" xmlns="http://www.w3.org/2000/svg">
<path d="M9.5 11C10.2911 11 11.0645 10.7654 11.7223 10.3259C12.3801 9.88635 12.8928 9.26164 13.1955 8.53074C13.4983 7.79983 13.5775 6.99556 13.4231 6.21964C13.2688 5.44372 12.8878 4.73098 12.3284 4.17157C11.769 3.61216 11.0563 3.2312 10.2804 3.07686C9.50444 2.92252 8.70017 3.00173 7.96927 3.30448C7.23836 3.60723 6.61365 4.11992 6.17412 4.77772C5.7346 5.43552 5.5 6.20888 5.5 7C5.5 8.06087 5.92143 9.07828 6.67157 9.82843C7.42172 10.5786 8.43913 11 9.5 11Z" fill="#AFD3CA"/>
<path d="M17.5 13C18.0933 13 18.6734 12.8241 19.1667 12.4944C19.6601 12.1648 20.0446 11.6962 20.2716 11.1481C20.4987 10.5999 20.5581 9.99667 20.4424 9.41473C20.3266 8.83279 20.0409 8.29824 19.6213 7.87868C19.2018 7.45912 18.6672 7.1734 18.0853 7.05765C17.5033 6.94189 16.9001 7.0013 16.3519 7.22836C15.8038 7.45543 15.3352 7.83994 15.0056 8.33329C14.6759 8.82664 14.5 9.40666 14.5 10C14.5 10.7957 14.8161 11.5587 15.3787 12.1213C15.9413 12.6839 16.7044 13 17.5 13Z" fill="#AFD3CA"/>
<path d="M21.5 20C21.7652 20 22.0196 19.8946 22.2071 19.7071C22.3946 19.5196 22.5 19.2652 22.5 19C22.4992 18.0654 22.2365 17.1497 21.7416 16.3569C21.2468 15.564 20.5396 14.9258 19.7003 14.5145C18.8611 14.1032 17.9234 13.9353 16.9936 14.03C16.0638 14.1247 15.1791 14.478 14.44 15.05C13.4605 14.0743 12.2141 13.4106 10.8578 13.1424C9.50159 12.8742 8.09632 13.0137 6.81923 13.5431C5.54213 14.0726 4.45041 14.9683 3.68174 16.1174C2.91307 17.2665 2.50187 18.6175 2.5 20C2.5 20.2652 2.60536 20.5196 2.79289 20.7071C2.98043 20.8946 3.23478 21 3.5 21H15.5C15.7652 21 16.0196 20.8946 16.2071 20.7071C16.3946 20.5196 16.5 20.2652 16.5 20" fill="#AFD3CA"/>
</svg>
