<svg width="25" height="24" viewBox="0 0 25 24" fill="none" xmlns="http://www.w3.org/2000/svg">
<path d="M12.5 11C13.2911 11 14.0645 10.7654 14.7223 10.3259C15.3801 9.88635 15.8928 9.26164 16.1955 8.53074C16.4983 7.79983 16.5775 6.99556 16.4231 6.21964C16.2688 5.44372 15.8878 4.73098 15.3284 4.17157C14.769 3.61216 14.0563 3.2312 13.2804 3.07686C12.5044 2.92252 11.7002 3.00173 10.9693 3.30448C10.2384 3.60723 9.61365 4.11992 9.17412 4.77772C8.7346 5.43552 8.5 6.20888 8.5 7C8.5 8.06087 8.92143 9.07828 9.67157 9.82843C10.4217 10.5786 11.4391 11 12.5 11Z" fill="#AFD3CA"/>
<path d="M18.5 21C18.7652 21 19.0196 20.8946 19.2071 20.7071C19.3946 20.5196 19.5 20.2652 19.5 20C19.5 18.1435 18.7625 16.363 17.4497 15.0503C16.137 13.7375 14.3565 13 12.5 13C10.6435 13 8.86301 13.7375 7.55025 15.0503C6.2375 16.363 5.5 18.1435 5.5 20C5.5 20.2652 5.60536 20.5196 5.79289 20.7071C5.98043 20.8946 6.23478 21 6.5 21H18.5Z" fill="#AFD3CA"/>
</svg>
