<svg width="21" height="22" viewBox="0 0 21 22" fill="none" xmlns="http://www.w3.org/2000/svg">
<path fill-rule="evenodd" clip-rule="evenodd" d="M11.7132 5.21409C11.7132 4.54357 11.1701 4 10.5001 4C9.83015 4 9.28705 4.54357 9.28705 5.21409V9.78588H4.71306C4.04311 9.78588 3.5 10.3295 3.5 11C3.5 11.6705 4.04311 12.2141 4.71306 12.2141H9.28705V16.7859C9.28705 17.4564 9.83015 18 10.5001 18C11.1701 18 11.7132 17.4564 11.7132 16.7859V12.2141H16.2869C16.9569 12.2141 17.5 11.6705 17.5 11C17.5 10.3295 16.9569 9.78588 16.2869 9.78588H11.7132V5.21409Z" fill="white"/>
</svg>
